<svg width="123" height="18" viewBox="0 0 123 18" fill="none" xmlns="http://www.w3.org/2000/svg">
<path d="M7.40938 18C6.0263 18 4.69261 17.7284 3.40832 17.1852C2.12402 16.642 0.987918 15.8765 0 14.8889L1.58067 13.0617C2.51919 13.9835 3.47418 14.6667 4.44563 15.1111C5.43355 15.5556 6.46263 15.7778 7.53287 15.7778C8.3726 15.7778 9.10531 15.6625 9.73099 15.4321C10.3731 15.1852 10.8671 14.8395 11.2129 14.3951C11.5586 13.9506 11.7315 13.4486 11.7315 12.8889C11.7315 12.1152 11.4598 11.5226 10.9165 11.1111C10.3731 10.6996 9.47578 10.3868 8.22442 10.1728L5.33476 9.7037C3.75409 9.42387 2.56859 8.91358 1.77825 8.17284C1.00438 7.4321 0.617449 6.44444 0.617449 5.20988C0.617449 4.22222 0.880893 3.35802 1.40778 2.61728C1.93467 1.86008 2.67561 1.27572 3.6306 0.864198C4.60205 0.452675 5.72169 0.246913 6.98952 0.246913C8.24088 0.246913 9.46755 0.452675 10.6695 0.864198C11.8879 1.25926 12.9829 1.83539 13.9543 2.59259L12.5219 4.5679C10.6613 3.15226 8.776 2.44444 6.86603 2.44444C6.10862 2.44444 5.45001 2.55144 4.89019 2.76543C4.33037 2.97942 3.89404 3.28395 3.5812 3.67901C3.26836 4.05761 3.11194 4.50206 3.11194 5.01234C3.11194 5.72016 3.35069 6.26337 3.82818 6.64197C4.30567 7.00411 5.09601 7.26749 6.19918 7.4321L8.99005 7.90123C10.8177 8.19753 12.1596 8.73251 13.0158 9.50617C13.872 10.2798 14.3001 11.3416 14.3001 12.6914C14.3001 13.7449 14.012 14.6749 13.4357 15.4815C12.8594 16.2716 12.0526 16.8889 11.0153 17.3333C9.97797 17.7778 8.776 18 7.40938 18Z" fill="white"/>
<path d="M18.3909 17.7531L14.8838 5.18519H17.2795L19.7246 14.4198L22.5895 5.18519H24.7136L27.5785 14.4198L30.0236 5.18519H32.3452L28.8134 17.7531H26.4424L23.6269 8.54321L20.7866 17.7531H18.3909Z" fill="white"/>
<path d="M34.1098 17.7531V5.18519H36.5796V17.7531H34.1098ZM35.3447 3.16049C34.9331 3.16049 34.5791 3.01235 34.2827 2.71605C33.9863 2.40329 33.8381 2.04115 33.8381 1.62963C33.8381 1.20165 33.9863 0.847737 34.2827 0.567901C34.5791 0.271605 34.9331 0.123456 35.3447 0.123456C35.7728 0.123456 36.135 0.271605 36.4314 0.567901C36.7278 0.847737 36.876 1.20165 36.876 1.62963C36.876 2.04115 36.7278 2.40329 36.4314 2.71605C36.135 3.01235 35.7728 3.16049 35.3447 3.16049Z" fill="white"/>
<path d="M43.8105 18C42.7238 18 41.7029 17.8436 40.7479 17.5309C39.8094 17.2016 38.9944 16.7407 38.3028 16.1481L39.6612 14.5185C40.3034 15.0288 40.962 15.4239 41.6371 15.7037C42.3286 15.9671 43.0284 16.0988 43.7364 16.0988C44.6255 16.0988 45.35 15.9259 45.9098 15.5802C46.4696 15.2346 46.7495 14.7819 46.7495 14.2222C46.7495 13.7613 46.5849 13.3992 46.2556 13.1358C45.9263 12.8724 45.4159 12.6914 44.7243 12.5926L42.4521 12.2716C41.2007 12.0905 40.2622 11.7037 39.6365 11.1111C39.0109 10.5185 38.698 9.72839 38.698 8.74074C38.698 7.98354 38.9038 7.3251 39.3155 6.76543C39.7271 6.1893 40.3034 5.74486 41.0443 5.4321C41.7853 5.10288 42.6497 4.93827 43.6376 4.93827C44.5432 4.93827 45.4159 5.06996 46.2556 5.33333C47.0953 5.59671 47.9021 6.00823 48.676 6.5679L47.4164 8.19753C46.7248 7.73662 46.0498 7.39918 45.3912 7.18518C44.749 6.97119 44.0986 6.8642 43.44 6.8642C42.6826 6.8642 42.0734 7.02881 41.6124 7.35802C41.1513 7.67078 40.9208 8.0823 40.9208 8.59259C40.9208 9.0535 41.0772 9.41564 41.3901 9.67901C41.7194 9.92593 42.2545 10.0988 42.9955 10.1975L45.2677 10.5185C46.519 10.6996 47.4658 11.0864 48.1079 11.679C48.7501 12.2551 49.0711 13.037 49.0711 14.0247C49.0711 14.7819 48.8406 15.465 48.3796 16.0741C47.9186 16.6667 47.2929 17.1358 46.5026 17.4815C45.7122 17.8272 44.8149 18 43.8105 18Z" fill="white"/>
<path d="M55.2912 18C54.2045 18 53.1836 17.8436 52.2286 17.5309C51.2901 17.2016 50.4751 16.7407 49.7835 16.1481L51.1419 14.5185C51.7841 15.0288 52.4427 15.4239 53.1178 15.7037C53.8093 15.9671 54.5091 16.0988 55.2171 16.0988C56.1062 16.0988 56.8307 15.9259 57.3905 15.5802C57.9503 15.2346 58.2302 14.7819 58.2302 14.2222C58.2302 13.7613 58.0656 13.3992 57.7363 13.1358C57.407 12.8724 56.8965 12.6914 56.205 12.5926L53.9328 12.2716C52.6814 12.0905 51.7429 11.7037 51.1172 11.1111C50.4915 10.5185 50.1787 9.72839 50.1787 8.74074C50.1787 7.98354 50.3845 7.3251 50.7961 6.76543C51.2078 6.1893 51.7841 5.74486 52.525 5.4321C53.2659 5.10288 54.1304 4.93827 55.1183 4.93827C56.0239 4.93827 56.8965 5.06996 57.7363 5.33333C58.576 5.59671 59.3828 6.00823 60.1567 6.5679L58.8971 8.19753C58.2055 7.73662 57.5305 7.39918 56.8718 7.18518C56.2297 6.97119 55.5793 6.8642 54.9207 6.8642C54.1633 6.8642 53.5541 7.02881 53.0931 7.35802C52.632 7.67078 52.4015 8.0823 52.4015 8.59259C52.4015 9.0535 52.5579 9.41564 52.8708 9.67901C53.2001 9.92593 53.7352 10.0988 54.4761 10.1975L56.7484 10.5185C57.9997 10.6996 58.9465 11.0864 59.5886 11.679C60.2308 12.2551 60.5518 13.037 60.5518 14.0247C60.5518 14.7819 60.3213 15.465 59.8603 16.0741C59.3993 16.6667 58.7736 17.1358 57.9833 17.4815C57.1929 17.8272 56.2956 18 55.2912 18Z" fill="white"/>
<path d="M62.4497 17.7531V0.469135L64.9195 0V6.37037C65.9733 5.44856 67.2493 4.98765 68.7477 4.98765C69.9332 4.98765 71.0034 5.27572 71.9584 5.85185C72.9299 6.42798 73.6955 7.20165 74.2553 8.17284C74.8152 9.14403 75.0951 10.2387 75.0951 11.4568C75.0951 12.6749 74.8069 13.7778 74.2306 14.7654C73.6708 15.7366 72.9052 16.5103 71.9337 17.0864C70.9787 17.6625 69.9003 17.9506 68.6983 17.9506C68.0068 17.9506 67.3317 17.8436 66.6731 17.6296C66.0309 17.3992 65.4382 17.0782 64.8948 16.6667V17.7531H62.4497ZM68.4266 15.8025C69.2334 15.8025 69.9497 15.6132 70.5753 15.2346C71.2175 14.856 71.7279 14.3457 72.1066 13.7037C72.4853 13.0453 72.6747 12.3045 72.6747 11.4815C72.6747 10.6584 72.4853 9.91769 72.1066 9.25926C71.7279 8.60082 71.2175 8.0823 70.5753 7.7037C69.9497 7.3251 69.2334 7.1358 68.4266 7.1358C67.7186 7.1358 67.06 7.26749 66.4508 7.53086C65.8416 7.79424 65.3311 8.16461 64.9195 8.64197V14.321C65.3311 14.7819 65.8416 15.144 66.4508 15.4074C67.0765 15.6708 67.7351 15.8025 68.4266 15.8025Z" fill="white"/>
<path d="M77.4518 17.7531V0.469135L79.9216 0V17.7531H77.4518Z" fill="white"/>
<path d="M104.218 17.9753C103.016 17.9753 101.921 17.6872 100.933 17.1111C99.9449 16.535 99.1628 15.7531 98.5865 14.7654C98.0267 13.7778 97.7467 12.6749 97.7467 11.4568C97.7467 10.2387 98.0349 9.14403 98.6112 8.17284C99.1875 7.18518 99.9613 6.40329 100.933 5.82716C101.921 5.23457 103.016 4.93827 104.218 4.93827C105.173 4.93827 106.086 5.11934 106.959 5.48148C107.848 5.84362 108.614 6.35391 109.256 7.01234L107.725 8.71605C107.247 8.1893 106.712 7.79424 106.119 7.53086C105.527 7.26749 104.909 7.1358 104.267 7.1358C103.51 7.1358 102.818 7.3251 102.192 7.7037C101.583 8.0823 101.097 8.60082 100.735 9.25926C100.373 9.91769 100.192 10.6502 100.192 11.4568C100.192 12.2634 100.373 12.9959 100.735 13.6543C101.097 14.3128 101.591 14.8395 102.217 15.2346C102.843 15.6132 103.543 15.8025 104.316 15.8025C104.959 15.8025 105.56 15.679 106.119 15.4321C106.679 15.1687 107.206 14.7901 107.7 14.2963L109.207 15.8765C108.548 16.5514 107.782 17.07 106.91 17.4321C106.053 17.7942 105.156 17.9753 104.218 17.9753Z" fill="white"/>
<path d="M111.194 17.7531V0.469135L113.664 0V10.6914L119.765 5.18519H122.654L116.159 11.0617L123 17.7531H119.74L113.664 11.8519V17.7531H111.194Z" fill="white"/>
</svg>
