<svg width="16" height="16" viewBox="0 0 16 16" fill="#000" xmlns="http://www.w3.org/2000/svg">
<path d="M8 0.5C3.86667 0.5 0.5 3.86667 0.5 8C0.5 12.1333 3.86667 15.5 8 15.5C12.1333 15.5 15.5 12.1333 15.5 8C15.5 3.86667 12.1333 0.5 8 0.5ZM14.65 7.58333H11.9499C11.8833 5.08333 11.1999 2.95 10.1665 1.7C12.6666 2.5667 14.4832 4.85 14.6499 7.58333H14.65ZM7.58333 1.4V7.58333H4.88336C4.98335 4.45 6.13336 1.83333 7.58333 1.4ZM7.58333 8.41667V14.6C6.13336 14.1666 4.98336 11.55 4.88336 8.41667H7.58333ZM8.41667 14.6V8.41667H11.1166C11.0167 11.55 9.86664 14.1667 8.41667 14.6ZM8.41667 7.58333V1.4C9.86664 1.8333 11.0166 4.45 11.1166 7.58333H8.41667ZM5.8333 1.7C4.81664 2.95 4.11664 5.08333 4.04991 7.58333H1.34994C1.51665 4.85 3.3333 2.56667 5.83327 1.7H5.8333ZM1.34997 8.41667H4.04994C4.11656 10.9167 4.79991 13.05 5.83333 14.3C3.33333 13.4333 1.51667 11.15 1.35 8.41667H1.34997ZM10.1666 14.3C11.1833 13.05 11.8833 10.9167 11.95 8.41667H14.65C14.4833 11.15 12.6666 13.4333 10.1667 14.3H10.1666Z" fill="#000"/>
</svg>
