<svg width="234" height="161" viewBox="0 0 234 161" fill="none" xmlns="http://www.w3.org/2000/svg">
<line y1="160.5" x2="233" y2="160.5" stroke="#616269" stroke-opacity="0.2"/>
<line y1="0.5" x2="233" y2="0.5" stroke="#616269" stroke-opacity="0.2"/>
<line y1="20.5" x2="233" y2="20.5" stroke="#616269" stroke-opacity="0.2"/>
<line y1="40.5" x2="233" y2="40.5" stroke="#616269" stroke-opacity="0.2"/>
<line y1="60.5" x2="233" y2="60.5" stroke="#616269" stroke-opacity="0.2"/>
<line y1="80.5" x2="233" y2="80.5" stroke="#616269" stroke-opacity="0.2"/>
<line y1="100.5" x2="233" y2="100.5" stroke="#616269" stroke-opacity="0.2"/>
<line y1="120.5" x2="233" y2="120.5" stroke="#616269" stroke-opacity="0.2"/>
<line y1="140.5" x2="233" y2="140.5" stroke="#616269" stroke-opacity="0.2"/>
<path opacity="0.2" d="M19.4088 144.309L2.05273 151H192.969V33L181.955 40.9072L173.61 52.4639H167.936L159.592 63.4124H154.252H149.579L137.229 71.9278L130.22 78.0103H122.544L116.87 87.7423H105.188L91.503 99.299H84.1601L74.4808 113.289H67.1378L61.7975 126.062H54.1208H51.1169L44.1077 137.01L29.4219 144.309H19.4088Z" fill="url(#paint0_linear_448_5030)"/>
<path opacity="0.2" d="M233 160.5V17.5L192.969 33.5V160.5H233Z" fill="url(#paint1_linear_448_5030)"/>
<path d="M2.05273 151L19.4088 144.309H29.4219L44.1077 137.01L51.1169 126.062H54.1208H61.7975L67.1378 113.289H74.4808L84.1601 99.299H91.503L105.188 87.7423H116.87L122.544 78.0103H130.22L137.229 71.9278L149.579 63.4124H154.252H159.592L167.936 52.4639H173.61L181.955 40.9072L192.969 33" stroke="#FF892F"/>
<path d="M192.969 33L233 17.5" stroke="#9EA1AC"/>
<defs>
<linearGradient id="paint0_linear_448_5030" x1="97.5109" y1="33" x2="97.5109" y2="151" gradientUnits="userSpaceOnUse">
<stop stop-color="#FF892F"/>
<stop offset="1" stop-color="#FF892F" stop-opacity="0"/>
</linearGradient>
<linearGradient id="paint1_linear_448_5030" x1="212.984" y1="17.5" x2="212.984" y2="160.5" gradientUnits="userSpaceOnUse">
<stop stop-color="#9EA1AC"/>
<stop offset="1" stop-color="#9EA1AC" stop-opacity="0"/>
</linearGradient>
</defs>
</svg>
